<!-- public/images/icons/index.svg -->
<svg xmlns="http://www.w3.org/2000/svg" style="display: none;">
    <!-- Business Icon -->
    <symbol id="icon-business" viewBox="0 0 24 24">
        <path d="M21 13.255A23.931 23.931 0 0112 15c-3.183 0-6.22-.62-9-1.745M16 6V4a2 2 0 00-2-2h-4a2 2 0 00-2 2v2m4 6h.01M5 20h14a2 2 0 002-2V8a2 2 0 00-2-2H5a2 2 0 00-2 2v10a2 2 0 002 2z"/>
    </symbol>
    
    <!-- Social Media Icon -->
    <symbol id="icon-social" viewBox="0 0 24 24">
        <path d="M13 10V3L4 14h7v7l9-11h-7z"/>
    </symbol>
    
    <!-- Productivity Icon -->
    <symbol id="icon-productivity" viewBox="0 0 24 24">
        <path d="M9.663 17h4.673M12 3v1m6.364 1.636l-.707.707M21 12h-1M4 12H3m3.343-5.657l-.707-.707m2.828 9.9a5 5 0 117.072 0l-.548.547A3.374 3.374 0 0014 18.469V19a2 2 0 11-4 0v-.531c0-.895-.356-1.754-.988-2.386l-.548-.547z"/>
    </symbol>

    <!-- Security Icon -->
    <symbol id="icon-security" viewBox="0 0 24 24">
        <path d="M9 12l2 2 4-4m5.618-4.016A11.955 11.955 0 0112 2.944a11.955 11.955 0 01-8.618 3.04A12.02 12.02 0 003 9c0 5.591 3.824 10.29 9 11.622 5.176-1.332 9-6.03 9-11.622 0-1.042-.133-2.052-.382-3.016z"/>
    </symbol>

    <!-- Support Icon -->
    <symbol id="icon-support" viewBox="0 0 24 24">
        <path d="M18.364 5.636l-3.536 3.536m0 5.656l3.536 3.536M9.172 9.172L5.636 5.636m3.536 9.192l-3.536 3.536M21 12a9 9 0 11-18 0 9 9 0 0118 0zm-5 0a4 4 0 11-8 0 4 4 0 018 0z"/>
    </symbol>
</svg>